<?xml version="1.0" encoding="UTF-8" standalone="no"?>
<svg
   width="576pt"
   height="576pt"
   viewBox="0 0 576 576"
   version="1.1"
   id="svg88"
   sodipodi:docname="KPI达成率.svg"
   inkscape:version="1.3.2 (091e20e, 2023-11-25, custom)"
   xmlns:inkscape="http://www.inkscape.org/namespaces/inkscape"
   xmlns:sodipodi="http://sodipodi.sourceforge.net/DTD/sodipodi-0.dtd"
   xmlns:xlink="http://www.w3.org/1999/xlink"
   xmlns="http://www.w3.org/2000/svg"
   xmlns:svg="http://www.w3.org/2000/svg"
   xmlns:rdf="http://www.w3.org/1999/02/22-rdf-syntax-ns#"
   xmlns:cc="http://creativecommons.org/ns#"
   xmlns:dc="http://purl.org/dc/elements/1.1/">
  <sodipodi:namedview
     id="namedview88"
     pagecolor="#ffffff"
     bordercolor="#000000"
     borderopacity="0.25"
     inkscape:showpageshadow="2"
     inkscape:pageopacity="0.0"
     inkscape:pagecheckerboard="0"
     inkscape:deskcolor="#d1d1d1"
     inkscape:document-units="pt"
     inkscape:zoom="0.99739583"
     inkscape:cx="383.49869"
     inkscape:cy="384"
     inkscape:window-width="1920"
     inkscape:window-height="991"
     inkscape:window-x="-9"
     inkscape:window-y="-9"
     inkscape:window-maximized="1"
     inkscape:current-layer="svg88" />
  <metadata
     id="metadata1">
    <rdf:RDF>
      <cc:Work>
        <dc:type
           rdf:resource="http://purl.org/dc/dcmitype/StillImage" />
        <dc:date>2025-02-22T20:51:19.890267</dc:date>
        <dc:format>image/svg+xml</dc:format>
        <dc:creator>
          <cc:Agent>
            <dc:title>Matplotlib v3.9.2, https://matplotlib.org/</dc:title>
          </cc:Agent>
        </dc:creator>
      </cc:Work>
    </rdf:RDF>
  </metadata>
  <defs
     id="defs1">
    <style
       type="text/css"
       id="style1">*{stroke-linejoin: round; stroke-linecap: butt}</style>
  </defs>
  <g
     id="figure_1"
     transform="translate(-39.853786,-0.75195822)">
    <g
       id="patch_1">
      <path
         d="M 0,576 H 576 V 0 H 0 Z"
         style="fill:#ffffff"
         id="path1" />
    </g>
    <g
       id="axes_1">
      <g
         id="patch_2">
        <path
           d="m 516.96,290.88 c 0,-29.12126 -5.73625,-57.95935 -16.88048,-84.86388 C 488.9353,179.11159 472.59984,154.66384 452.008,134.072 431.41616,113.48016 406.96841,97.144697 380.06388,86.000475 353.15934,74.856253 324.32126,69.12 295.2,69.12 c -29.12126,0 -57.95935,5.736253 -84.86388,16.880475 C 183.43159,97.144697 158.98384,113.48016 138.392,134.072 117.80016,154.66384 101.4647,179.11159 90.320475,206.01612 79.176253,232.92065 73.44,261.75874 73.44,290.88 c 0,29.12126 5.736253,57.95934 16.880475,84.86388 11.144225,26.90453 27.479685,51.35228 48.071525,71.94412 20.59184,20.59184 45.03959,36.9273 71.94412,48.07152 26.90453,11.14423 55.74262,16.88048 84.86388,16.88048 29.12126,0 57.95934,-5.73625 84.86388,-16.88048 26.90453,-11.14422 51.35228,-27.47968 71.94412,-48.07152 20.59184,-20.59184 36.9273,-45.03959 48.07152,-71.94412 C 511.22375,348.83934 516.96,320.00126 516.96,290.88 m -221.76,0 c 0,0 0,0 0,0 0,0 0,0 0,0 0,0 0,0 0,0 0,0 0,0 0,0 0,0 0,0 0,0 0,0 0,0 0,0 0,0 0,0 0,0 0,0 0,0 0,0 0,0 0,0 0,0 0,0 0,0 0,0 0,0 0,0 0,0 0,0 0,0 0,0 0,0 0,0 0,0 0,0 0,0 0,0 0,0 0,0 0,0 z"
           style="fill:#ffffff"
           id="path2" />
      </g>
      <g
         id="patch_3">
        <path
           d="M 420.56832,290.88 353.06776,112.78135 250.3481,258.29319 l -12.55854,74.29793 93.9585,70.77224 z"
           clip-path="url(#pda6db5c713)"
           style="opacity:0.5;fill:#87ceeb;stroke:#87ceeb;stroke-linejoin:miter"
           id="path3" />
      </g>
      <g
         id="matplotlib.axis_1">
        <g
           id="xtick_1">
          <g
             id="line2d_1">
            <path
               d="M 295.2,290.88 H 516.96"
               clip-path="url(#pda6db5c713)"
               style="fill:none;stroke:#b0b0b0;stroke-width:0.8;stroke-linecap:square"
               id="path4" />
          </g>
          <g
             id="text_1">
            <!-- Growth of followers -->
            <g
               transform="matrix(0.12,0,0,-0.12,464.25125,294.19125)"
               id="g22">
              <defs
                 id="defs4">
                <path
                   id="DejaVuSans-Bold-47"
                   d="M 4781,347 Q 4331,128 3847,18 3363,-91 2847,-91 1681,-91 1000,561 319,1213 319,2328 q 0,1128 693,1775 694,647 1901,647 465,0 891,-88 427,-87 805,-259 v -965 q -390,221 -776,330 -386,110 -774,110 -718,0 -1107,-402 -389,-401 -389,-1148 0,-740 375,-1144 375,-403 1065,-403 188,0 349,23 161,24 289,74 v 906 h -735 v 807 h 1875 z"
                   transform="scale(0.015625)" />
                <path
                   id="DejaVuSans-Bold-72"
                   d="m 3138,2547 q -147,69 -293,101 -145,33 -292,33 -431,0 -664,-277 -233,-276 -233,-791 V 0 H 538 v 3500 h 1118 v -575 q 216,344 495,501 280,158 671,158 56,0 121,-5 66,-4 191,-20 z"
                   transform="scale(0.015625)" />
                <path
                   id="DejaVuSans-Bold-6f"
                   d="m 2203,2784 q -372,0 -567,-267 -195,-267 -195,-770 0,-503 195,-771 195,-267 567,-267 366,0 559,267 194,268 194,771 0,503 -194,770 -193,267 -559,267 z m 0,800 q 903,0 1411,-488 508,-487 508,-1349 Q 4122,884 3614,396 3106,-91 2203,-91 1297,-91 786,396 275,884 275,1747 q 0,862 511,1349 511,488 1417,488 z"
                   transform="scale(0.015625)" />
                <path
                   id="DejaVuSans-Bold-77"
                   d="m 225,3500 h 1088 l 587,-2412 591,2412 h 934 l 588,-2387 590,2387 H 5691 L 4769,0 H 3547 L 2956,2406 2369,0 H 1147 Z"
                   transform="scale(0.015625)" />
                <path
                   id="DejaVuSans-Bold-74"
                   d="M 1759,4494 V 3500 H 2913 V 2700 H 1759 V 1216 q 0,-244 97,-330 97,-86 385,-86 h 575 V 0 H 1856 Q 1194,0 917,276 641,553 641,1216 V 2700 H 84 v 800 h 557 v 994 z"
                   transform="scale(0.015625)" />
                <path
                   id="DejaVuSans-Bold-68"
                   d="M 4056,2131 V 0 H 2931 v 347 1278 q 0,459 -20,631 -20,172 -70,253 -66,110 -179,171 -112,61 -256,61 -350,0 -550,-271 -200,-270 -200,-748 V 0 H 538 V 4863 H 1656 V 2988 q 253,306 537,451 285,145 629,145 606,0 920,-372 314,-371 314,-1081 z"
                   transform="scale(0.015625)" />
                <path
                   id="DejaVuSans-Bold-20"
                   transform="scale(0.015625)"
                   d="" />
                <path
                   id="DejaVuSans-Bold-66"
                   d="m 2841,4863 v -735 h -619 q -238,0 -332,-86 -93,-86 -93,-298 v -244 h 956 V 2700 H 1797 V 0 H 678 V 2700 H 122 v 800 h 556 v 244 q 0,572 319,845 319,274 987,274 z"
                   transform="scale(0.015625)" />
                <path
                   id="DejaVuSans-Bold-6c"
                   d="M 538,4863 H 1656 V 0 H 538 Z"
                   transform="scale(0.015625)" />
                <path
                   id="DejaVuSans-Bold-65"
                   d="M 4031,1759 V 1441 H 1416 q 40,-394 284,-591 244,-197 681,-197 353,0 723,105 371,105 762,317 V 213 Q 3469,63 3072,-14 2675,-91 2278,-91 1328,-91 801,392 275,875 275,1747 q 0,856 517,1346 517,491 1424,491 825,0 1320,-497 495,-496 495,-1328 z m -1150,372 q 0,319 -186,514 -186,196 -486,196 -325,0 -528,-183 -203,-183 -253,-527 z"
                   transform="scale(0.015625)" />
                <path
                   id="DejaVuSans-Bold-73"
                   d="m 3272,3391 v -850 q -359,150 -694,225 -334,75 -631,75 -319,0 -474,-80 -154,-80 -154,-245 0,-135 117,-207 117,-71 420,-106 l 197,-28 q 860,-109 1156,-359 297,-250 297,-785 0,-559 -413,-841 -412,-281 -1230,-281 -347,0 -718,55 -370,55 -761,164 v 850 q 335,-162 686,-244 352,-81 714,-81 329,0 494,90 166,91 166,270 0,150 -114,223 -114,73 -455,114 l -197,25 q -747,94 -1047,347 -300,253 -300,769 0,556 381,824 382,269 1169,269 310,0 650,-47 341,-46 741,-146 z"
                   transform="scale(0.015625)" />
              </defs>
              <use
                 xlink:href="#DejaVuSans-Bold-47"
                 id="use4" />
              <use
                 xlink:href="#DejaVuSans-Bold-72"
                 x="82.080078"
                 id="use5" />
              <use
                 xlink:href="#DejaVuSans-Bold-6f"
                 x="131.39648"
                 id="use6" />
              <use
                 xlink:href="#DejaVuSans-Bold-77"
                 x="200.09766"
                 id="use7" />
              <use
                 xlink:href="#DejaVuSans-Bold-74"
                 x="292.48047"
                 id="use8" />
              <use
                 xlink:href="#DejaVuSans-Bold-68"
                 x="340.2832"
                 id="use9" />
              <use
                 xlink:href="#DejaVuSans-Bold-20"
                 x="411.47461"
                 id="use10" />
              <use
                 xlink:href="#DejaVuSans-Bold-6f"
                 x="446.28906"
                 id="use11" />
              <use
                 xlink:href="#DejaVuSans-Bold-66"
                 x="514.99023"
                 id="use12" />
              <use
                 xlink:href="#DejaVuSans-Bold-20"
                 x="558.49609"
                 id="use13" />
              <use
                 xlink:href="#DejaVuSans-Bold-66"
                 x="593.31055"
                 id="use14" />
              <use
                 xlink:href="#DejaVuSans-Bold-6f"
                 x="636.81641"
                 id="use15" />
              <use
                 xlink:href="#DejaVuSans-Bold-6c"
                 x="705.51758"
                 id="use16" />
              <use
                 xlink:href="#DejaVuSans-Bold-6c"
                 x="739.79492"
                 id="use17" />
              <use
                 xlink:href="#DejaVuSans-Bold-6f"
                 x="774.07227"
                 id="use18" />
              <use
                 xlink:href="#DejaVuSans-Bold-77"
                 x="842.77344"
                 id="use19" />
              <use
                 xlink:href="#DejaVuSans-Bold-65"
                 x="935.15625"
                 id="use20" />
              <use
                 xlink:href="#DejaVuSans-Bold-72"
                 x="1002.9785"
                 id="use21" />
              <use
                 xlink:href="#DejaVuSans-Bold-73"
                 x="1052.2949"
                 id="use22" />
            </g>
          </g>
        </g>
        <g
           id="xtick_2">
          <g
             id="line2d_2">
            <path
               d="M 295.2,290.88 363.72761,79.973707"
               clip-path="url(#pda6db5c713)"
               style="fill:none;stroke:#b0b0b0;stroke-width:0.8;stroke-linecap:square"
               id="path22" />
          </g>
          <g
             id="text_2">
            <!-- Likes -->
            <g
               transform="matrix(0.12,0,0,-0.12,350.70072,69.970166)"
               id="g27">
              <defs
                 id="defs22">
                <path
                   id="DejaVuSans-Bold-4c"
                   d="M 588,4666 H 1791 V 909 H 3903 V 0 H 588 Z"
                   transform="scale(0.015625)" />
                <path
                   id="DejaVuSans-Bold-69"
                   d="M 538,3500 H 1656 V 0 H 538 Z m 0,1363 H 1656 V 3950 H 538 Z"
                   transform="scale(0.015625)" />
                <path
                   id="DejaVuSans-Bold-6b"
                   d="M 538,4863 H 1656 V 2216 L 2944,3500 H 4244 L 2534,1894 4378,0 H 3022 L 1656,1459 V 0 H 538 Z"
                   transform="scale(0.015625)" />
              </defs>
              <use
                 xlink:href="#DejaVuSans-Bold-4c"
                 id="use23" />
              <use
                 xlink:href="#DejaVuSans-Bold-69"
                 x="63.720703"
                 id="use24" />
              <use
                 xlink:href="#DejaVuSans-Bold-6b"
                 x="97.998047"
                 id="use25" />
              <use
                 xlink:href="#DejaVuSans-Bold-65"
                 x="161.87695"
                 id="use26" />
              <use
                 xlink:href="#DejaVuSans-Bold-73"
                 x="229.69922"
                 id="use27" />
            </g>
          </g>
        </g>
        <g
           id="xtick_3">
          <g
             id="line2d_3">
            <path
               d="M 295.2,290.88 115.79239,160.53274"
               clip-path="url(#pda6db5c713)"
               style="fill:none;stroke:#b0b0b0;stroke-width:0.8;stroke-linecap:square"
               id="path27" />
          </g>
          <g
             id="text_3">
            <!-- Comments -->
            <g
               transform="matrix(0.12,0,0,-0.12,68.656466,155.615)"
               id="g35">
              <defs
                 id="defs27">
                <path
                   id="DejaVuSans-Bold-43"
                   d="M 4288,256 Q 3956,84 3597,-3 3238,-91 2847,-91 1681,-91 1000,561 319,1213 319,2328 q 0,1119 681,1770 681,652 1847,652 391,0 750,-88 359,-87 691,-259 v -965 q -335,228 -660,334 -325,106 -684,106 -644,0 -1013,-413 -368,-412 -368,-1137 0,-722 368,-1135 369,-412 1013,-412 359,0 684,106 325,107 660,335 z"
                   transform="scale(0.015625)" />
                <path
                   id="DejaVuSans-Bold-6d"
                   d="m 3781,2919 q 213,325 505,495 292,170 642,170 603,0 919,-372 316,-371 316,-1081 V 0 H 5038 v 1825 q 3,41 4,84 2,44 2,125 0,372 -110,539 -109,168 -353,168 -318,0 -492,-263 -173,-262 -180,-759 V 0 H 2784 v 1825 q 0,581 -100,748 -100,168 -356,168 -322,0 -497,-264 -175,-264 -175,-755 V 0 H 531 v 3500 h 1125 v -512 q 207,296 474,446 267,150 589,150 362,0 640,-175 279,-175 422,-490 z"
                   transform="scale(0.015625)" />
                <path
                   id="DejaVuSans-Bold-6e"
                   d="M 4056,2131 V 0 H 2931 v 347 1284 q 0,453 -20,625 -20,172 -70,253 -66,110 -179,171 -112,61 -256,61 -350,0 -550,-271 -200,-270 -200,-748 V 0 H 538 v 3500 h 1118 v -512 q 253,306 537,451 285,145 629,145 606,0 920,-372 314,-371 314,-1081 z"
                   transform="scale(0.015625)" />
              </defs>
              <use
                 xlink:href="#DejaVuSans-Bold-43"
                 id="use28" />
              <use
                 xlink:href="#DejaVuSans-Bold-6f"
                 x="73.388672"
                 id="use29" />
              <use
                 xlink:href="#DejaVuSans-Bold-6d"
                 x="142.08984"
                 id="use30" />
              <use
                 xlink:href="#DejaVuSans-Bold-6d"
                 x="246.28906"
                 id="use31" />
              <use
                 xlink:href="#DejaVuSans-Bold-65"
                 x="350.48828"
                 id="use32" />
              <use
                 xlink:href="#DejaVuSans-Bold-6e"
                 x="418.31055"
                 id="use33" />
              <use
                 xlink:href="#DejaVuSans-Bold-74"
                 x="489.50195"
                 id="use34" />
              <use
                 xlink:href="#DejaVuSans-Bold-73"
                 x="537.30469"
                 id="use35" />
            </g>
          </g>
        </g>
        <g
           id="xtick_4">
          <g
             id="line2d_4">
            <path
               d="M 295.2,290.88 115.79239,421.22726"
               clip-path="url(#pda6db5c713)"
               style="fill:none;stroke:#b0b0b0;stroke-width:0.8;stroke-linecap:square"
               id="path35" />
          </g>
          <g
             id="text_4">
            <!-- New customers -->
            <g
               transform="matrix(0.12,0,0,-0.12,52.502403,432.7675)"
               id="g48">
              <defs
                 id="defs35">
                <path
                   id="DejaVuSans-Bold-4e"
                   d="M 588,4666 H 1931 L 3628,1466 V 4666 H 4769 V 0 H 3425 L 1728,3200 V 0 H 588 Z"
                   transform="scale(0.015625)" />
                <path
                   id="DejaVuSans-Bold-63"
                   d="m 3366,3391 v -913 q -228,156 -458,231 -230,75 -477,75 -468,0 -729,-273 -261,-273 -261,-764 0,-491 261,-765 261,-273 729,-273 263,0 499,78 236,79 436,232 V 103 Q 3103,6 2833,-42 2563,-91 2291,-91 1344,-91 809,395 275,881 275,1747 q 0,866 534,1351 535,486 1482,486 275,0 542,-48 267,-48 533,-145 z"
                   transform="scale(0.015625)" />
                <path
                   id="DejaVuSans-Bold-75"
                   d="m 500,1363 v 2137 h 1125 v -350 q 0,-284 -3,-714 -3,-430 -3,-573 0,-422 22,-608 22,-186 75,-271 68,-109 179,-169 111,-59 255,-59 350,0 550,269 200,269 200,747 V 3500 H 4019 V 0 H 2900 V 506 Q 2647,200 2364,54 2081,-91 1741,-91 1134,-91 817,281 500,653 500,1363 Z"
                   transform="scale(0.015625)" />
              </defs>
              <use
                 xlink:href="#DejaVuSans-Bold-4e"
                 id="use36" />
              <use
                 xlink:href="#DejaVuSans-Bold-65"
                 x="83.691406"
                 id="use37" />
              <use
                 xlink:href="#DejaVuSans-Bold-77"
                 x="151.51367"
                 id="use38" />
              <use
                 xlink:href="#DejaVuSans-Bold-20"
                 x="243.89648"
                 id="use39" />
              <use
                 xlink:href="#DejaVuSans-Bold-63"
                 x="278.71094"
                 id="use40" />
              <use
                 xlink:href="#DejaVuSans-Bold-75"
                 x="337.98828"
                 id="use41" />
              <use
                 xlink:href="#DejaVuSans-Bold-73"
                 x="409.17969"
                 id="use42" />
              <use
                 xlink:href="#DejaVuSans-Bold-74"
                 x="468.70117"
                 id="use43" />
              <use
                 xlink:href="#DejaVuSans-Bold-6f"
                 x="516.50391"
                 id="use44" />
              <use
                 xlink:href="#DejaVuSans-Bold-6d"
                 x="585.20508"
                 id="use45" />
              <use
                 xlink:href="#DejaVuSans-Bold-65"
                 x="689.4043"
                 id="use46" />
              <use
                 xlink:href="#DejaVuSans-Bold-72"
                 x="757.22656"
                 id="use47" />
              <use
                 xlink:href="#DejaVuSans-Bold-73"
                 x="806.54297"
                 id="use48" />
            </g>
          </g>
        </g>
        <g
           id="xtick_5">
          <g
             id="line2d_5">
            <path
               d="m 295.2,290.88 68.52761,210.90629"
               clip-path="url(#pda6db5c713)"
               style="fill:none;stroke:#b0b0b0;stroke-width:0.8;stroke-linecap:square"
               id="path48" />
          </g>
          <g
             id="text_5">
            <!-- Orders -->
            <g
               transform="matrix(0.12,0,0,-0.12,345.1001,518.41233)"
               id="g54">
              <defs
                 id="defs48">
                <path
                   id="DejaVuSans-Bold-4f"
                   d="m 2719,3878 q -550,0 -853,-406 -303,-406 -303,-1144 0,-734 303,-1141 303,-406 853,-406 553,0 856,406 303,407 303,1141 0,738 -303,1144 -303,406 -856,406 z m 0,872 q 1125,0 1762,-644 638,-643 638,-1778 Q 5119,1197 4481,553 3844,-91 2719,-91 1597,-91 958,553 319,1197 319,2328 q 0,1135 639,1778 639,644 1761,644 z"
                   transform="scale(0.015625)" />
                <path
                   id="DejaVuSans-Bold-64"
                   d="M 2919,2988 V 4863 H 4044 V 0 H 2919 V 506 Q 2688,197 2409,53 2131,-91 1766,-91 1119,-91 703,423 288,938 288,1747 q 0,809 415,1323 416,514 1063,514 362,0 642,-145 280,-145 511,-451 z M 2181,722 q 360,0 549,262 189,263 189,763 0,500 -189,762 -189,263 -549,263 -356,0 -545,-263 -189,-262 -189,-762 0,-500 189,-763 189,-262 545,-262 z"
                   transform="scale(0.015625)" />
              </defs>
              <use
                 xlink:href="#DejaVuSans-Bold-4f"
                 id="use49" />
              <use
                 xlink:href="#DejaVuSans-Bold-72"
                 x="85.009766"
                 id="use50" />
              <use
                 xlink:href="#DejaVuSans-Bold-64"
                 x="134.32617"
                 id="use51" />
              <use
                 xlink:href="#DejaVuSans-Bold-65"
                 x="205.9082"
                 id="use52" />
              <use
                 xlink:href="#DejaVuSans-Bold-72"
                 x="273.73047"
                 id="use53" />
              <use
                 xlink:href="#DejaVuSans-Bold-73"
                 x="323.04688"
                 id="use54" />
            </g>
          </g>
        </g>
      </g>
      <g
         id="matplotlib.axis_2">
        <g
           id="ytick_1">
          <g
             id="line2d_6">
            <path
               d="m 295.2,290.88 c 0,0 0,0 0,0 0,0 0,0 0,0 0,0 0,0 0,0 0,0 0,0 0,0 0,0 0,0 0,0 0,0 0,0 0,0 0,0 0,0 0,0 0,0 0,0 0,0 0,0 0,0 0,0 0,0 0,0 0,0 0,0 0,0 0,0 0,0 0,0 0,0 0,0 0,0 0,0 0,0 0,0 0,0 0,0 0,0 0,0 0,0 0,0 0,0"
               clip-path="url(#pda6db5c713)"
               style="fill:none;stroke:#b0b0b0;stroke-width:0.8;stroke-linecap:square"
               id="path54" />
          </g>
          <g
             id="text_6">
            <!-- 0% -->
            <g
               transform="matrix(0.1,0,0,-0.1,295.2,288.80031)"
               id="g56">
              <defs
                 id="defs54">
                <path
                   id="DejaVuSans-30"
                   d="m 2034,4250 q -487,0 -733,-480 -245,-479 -245,-1442 0,-959 245,-1439 246,-480 733,-480 491,0 736,480 246,480 246,1439 0,963 -246,1442 -245,480 -736,480 z m 0,500 q 785,0 1199,-621 414,-620 414,-1801 0,-1178 -414,-1799 -414,-620 -1199,-620 -784,0 -1198,620 -414,621 -414,1799 0,1181 414,1801 414,621 1198,621 z"
                   transform="scale(0.015625)" />
                <path
                   id="DejaVuSans-25"
                   d="m 4653,2053 q -272,0 -427,-231 -154,-231 -154,-644 0,-406 154,-639 155,-233 427,-233 266,0 420,233 155,233 155,639 0,410 -155,642 -154,233 -420,233 z m 0,397 q 494,0 784,-344 291,-343 291,-928 0,-584 -292,-927 -292,-342 -783,-342 -500,0 -791,342 -290,343 -290,927 0,588 292,930 292,342 789,342 z M 1428,4353 q -269,0 -424,-233 -154,-232 -154,-639 0,-412 153,-644 153,-231 425,-231 272,0 426,231 155,232 155,644 0,403 -156,637 -156,235 -425,235 z m 2822,397 h 500 L 1831,-91 h -500 z m -2822,0 q 494,0 787,-342 294,-342 294,-927 0,-590 -292,-931 -292,-341 -789,-341 -497,0 -786,342 -289,343 -289,930 0,582 290,925 291,344 785,344 z"
                   transform="scale(0.015625)" />
              </defs>
              <use
                 xlink:href="#DejaVuSans-30"
                 id="use55" />
              <use
                 xlink:href="#DejaVuSans-25"
                 x="63.623047"
                 id="use56" />
            </g>
          </g>
        </g>
        <g
           id="ytick_2">
          <g
             id="line2d_7">
            <path
               d="m 369.12,290.88 c 0,-9.70709 -1.91208,-19.31978 -5.62683,-28.28796 -3.71474,-8.96818 -9.15989,-17.11743 -16.02384,-23.98137 -6.86394,-6.86395 -15.01319,-12.3091 -23.98137,-16.02385 C 314.51978,218.87208 304.90708,216.96 295.2,216.96 c -9.70709,0 -19.31978,1.91208 -28.28796,5.62682 -8.96818,3.71475 -17.11743,9.1599 -23.98137,16.02385 -6.86395,6.86394 -12.3091,15.01319 -16.02385,23.98137 -3.71474,8.96818 -5.62682,18.58087 -5.62682,28.28796 0,9.70708 1.91208,19.31978 5.62682,28.28796 3.71475,8.96818 9.1599,17.11743 16.02385,23.98137 6.86394,6.86395 15.01319,12.3091 23.98137,16.02385 8.96818,3.71474 18.58087,5.62682 28.28796,5.62682 9.70708,0 19.31978,-1.91208 28.28796,-5.62682 8.96818,-3.71475 17.11743,-9.1599 23.98137,-16.02385 6.86395,-6.86394 12.3091,-15.01319 16.02384,-23.98137 3.71475,-8.96818 5.62683,-18.58088 5.62683,-28.28796"
               clip-path="url(#pda6db5c713)"
               style="fill:none;stroke:#b0b0b0;stroke-width:0.8;stroke-linecap:square"
               id="path56" />
          </g>
          <g
             id="text_7">
            <!-- 50% -->
            <g
               transform="matrix(0.1,0,0,-0.1,363.49317,260.51235)"
               id="g59">
              <defs
                 id="defs56">
                <path
                   id="DejaVuSans-35"
                   d="M 691,4666 H 3169 V 4134 H 1269 V 2991 q 137,47 274,70 138,23 276,23 781,0 1237,-428 457,-428 457,-1159 Q 3513,744 3044,326 2575,-91 1722,-91 1428,-91 1123,-41 819,9 494,109 v 635 q 281,-153 581,-228 300,-75 634,-75 541,0 856,284 316,284 316,772 0,487 -316,771 -315,285 -856,285 -253,0 -505,-56 -251,-56 -513,-175 z"
                   transform="scale(0.015625)" />
              </defs>
              <use
                 xlink:href="#DejaVuSans-35"
                 id="use57" />
              <use
                 xlink:href="#DejaVuSans-30"
                 x="63.623047"
                 id="use58" />
              <use
                 xlink:href="#DejaVuSans-25"
                 x="127.24609"
                 id="use59" />
            </g>
          </g>
        </g>
        <g
           id="ytick_3">
          <g
             id="line2d_8">
            <path
               d="m 443.04,290.88 c 0,-19.41417 -3.82417,-38.63956 -11.25365,-56.57592 -7.42948,-17.93635 -18.31979,-34.23486 -32.04768,-47.96275 -13.72789,-13.72789 -30.0264,-24.6182 -47.96275,-32.04768 C 333.83956,146.86417 314.61417,143.04 295.2,143.04 c -19.41417,0 -38.63956,3.82417 -56.57592,11.25365 -17.93635,7.42948 -34.23486,18.31979 -47.96275,32.04768 -13.72789,13.72789 -24.6182,30.0264 -32.04768,47.96275 C 151.18417,252.24044 147.36,271.46583 147.36,290.88 c 0,19.41417 3.82417,38.63956 11.25365,56.57592 7.42948,17.93635 18.31979,34.23485 32.04768,47.96275 13.72789,13.72789 30.0264,24.6182 47.96275,32.04768 17.93636,7.42948 37.16175,11.25365 56.57592,11.25365 19.41417,0 38.63956,-3.82417 56.57592,-11.25365 17.93635,-7.42948 34.23486,-18.31979 47.96275,-32.04768 13.72789,-13.7279 24.6182,-30.0264 32.04768,-47.96275 C 439.21583,329.51956 443.04,310.29417 443.04,290.88"
               clip-path="url(#pda6db5c713)"
               style="fill:none;stroke:#b0b0b0;stroke-width:0.8;stroke-linecap:square"
               id="path59" />
          </g>
          <g
             id="text_8">
            <!-- 100% -->
            <g
               transform="matrix(0.1,0,0,-0.1,431.78635,232.22439)"
               id="g63">
              <defs
                 id="defs59">
                <path
                   id="DejaVuSans-31"
                   d="M 794,531 H 1825 V 4091 L 703,3866 v 575 l 1116,225 h 631 V 531 H 3481 V 0 H 794 Z"
                   transform="scale(0.015625)" />
              </defs>
              <use
                 xlink:href="#DejaVuSans-31"
                 id="use60" />
              <use
                 xlink:href="#DejaVuSans-30"
                 x="63.623047"
                 id="use61" />
              <use
                 xlink:href="#DejaVuSans-30"
                 x="127.24609"
                 id="use62" />
              <use
                 xlink:href="#DejaVuSans-25"
                 x="190.86914"
                 id="use63" />
            </g>
          </g>
        </g>
        <g
           id="ytick_4">
          <g
             id="line2d_9">
            <path
               d="m 516.96,290.88 c 0,-29.12126 -5.73625,-57.95935 -16.88048,-84.86388 C 488.9353,179.11159 472.59984,154.66384 452.008,134.072 431.41616,113.48016 406.96841,97.144697 380.06388,86.000475 353.15934,74.856253 324.32126,69.12 295.2,69.12 c -29.12126,0 -57.95935,5.736253 -84.86388,16.880475 C 183.43159,97.144697 158.98384,113.48016 138.392,134.072 117.80016,154.66384 101.4647,179.11159 90.320475,206.01612 79.176253,232.92065 73.44,261.75874 73.44,290.88 c 0,29.12126 5.736253,57.95934 16.880475,84.86388 11.144225,26.90453 27.479685,51.35228 48.071525,71.94412 20.59184,20.59184 45.03959,36.9273 71.94412,48.07152 26.90453,11.14423 55.74262,16.88048 84.86388,16.88048 29.12126,0 57.95934,-5.73625 84.86388,-16.88048 26.90453,-11.14422 51.35228,-27.47968 71.94412,-48.07152 20.59184,-20.59184 36.9273,-45.03959 48.07152,-71.94412 C 511.22375,348.83934 516.96,320.00126 516.96,290.88"
               clip-path="url(#pda6db5c713)"
               style="fill:none;stroke:#b0b0b0;stroke-width:0.8;stroke-linecap:square"
               id="path63" />
          </g>
          <g
             id="text_9">
            <!-- 150% -->
            <g
               transform="matrix(0.1,0,0,-0.1,500.07952,203.93643)"
               id="g67">
              <use
                 xlink:href="#DejaVuSans-31"
                 id="use64" />
              <use
                 xlink:href="#DejaVuSans-35"
                 x="63.623047"
                 id="use65" />
              <use
                 xlink:href="#DejaVuSans-30"
                 x="127.24609"
                 id="use66" />
              <use
                 xlink:href="#DejaVuSans-25"
                 x="190.86914"
                 id="use67" />
            </g>
          </g>
        </g>
      </g>
      <g
         id="line2d_10">
        <path
           d="M 420.56832,290.88 353.06776,112.78135 250.3481,258.29319 237.78956,332.59112 331.74806,403.36336 420.56832,290.88"
           clip-path="url(#pda6db5c713)"
           style="fill:none;stroke:#ffd700;stroke-width:2.5;stroke-linecap:square"
           id="path67" />
      </g>
      <g
         id="patch_4">
        <path
           d="m 516.96,290.88 c 0,-29.12126 -5.73625,-57.95935 -16.88048,-84.86388 C 488.9353,179.11159 472.59984,154.66384 452.008,134.072 431.41616,113.48016 406.96841,97.144697 380.06388,86.000475 353.15934,74.856253 324.32126,69.12 295.2,69.12 c -29.12126,0 -57.95935,5.736253 -84.86388,16.880475 C 183.43159,97.144697 158.98384,113.48016 138.392,134.072 117.80016,154.66384 101.4647,179.11159 90.320475,206.01612 79.176253,232.92065 73.44,261.75874 73.44,290.88 c 0,29.12126 5.736253,57.95934 16.880475,84.86388 11.144225,26.90453 27.479685,51.35228 48.071525,71.94412 20.59184,20.59184 45.03959,36.9273 71.94412,48.07152 26.90453,11.14423 55.74262,16.88048 84.86388,16.88048 29.12126,0 57.95934,-5.73625 84.86388,-16.88048 26.90453,-11.14422 51.35228,-27.47968 71.94412,-48.07152 20.59184,-20.59184 36.9273,-45.03959 48.07152,-71.94412 C 511.22375,348.83934 516.96,320.00126 516.96,290.88"
           style="fill:none;stroke:#000000;stroke-width:0.8;stroke-linecap:square;stroke-linejoin:miter"
           id="path68" />
      </g>
      <g
         id="text_10">
        <!-- KPI Achievement Rate -->
        <g
           transform="matrix(0.16,0,0,-0.16,195.0625,49.12)"
           id="g87">
          <defs
             id="defs68">
            <path
               id="DejaVuSans-Bold-4b"
               d="M 588,4666 H 1791 V 2963 L 3525,4666 H 4922 L 2675,2456 5153,0 H 3647 L 1791,1838 V 0 H 588 Z"
               transform="scale(0.015625)" />
            <path
               id="DejaVuSans-Bold-50"
               d="m 588,4666 h 1996 q 891,0 1367,-396 477,-395 477,-1126 0,-735 -477,-1130 -476,-395 -1367,-395 H 1791 V 0 H 588 Z M 1791,3794 V 2491 h 665 q 350,0 541,170 191,170 191,483 0,312 -191,481 -191,169 -541,169 z"
               transform="scale(0.015625)" />
            <path
               id="DejaVuSans-Bold-49"
               d="M 588,4666 H 1791 V 0 H 588 Z"
               transform="scale(0.015625)" />
            <path
               id="DejaVuSans-Bold-41"
               d="M 3419,850 H 1538 L 1241,0 H 31 L 1759,4666 H 3194 L 4922,0 H 3713 Z m -1581,866 h 1278 l -638,1856 z"
               transform="scale(0.015625)" />
            <path
               id="DejaVuSans-Bold-76"
               d="m 97,3500 h 1119 l 872,-2419 868,2419 H 4078 L 2700,0 H 1472 Z"
               transform="scale(0.015625)" />
            <path
               id="DejaVuSans-Bold-52"
               d="m 2297,2597 q 378,0 542,140 164,141 164,463 0,319 -164,456 -164,138 -542,138 H 1791 V 2597 Z M 1791,1766 V 0 H 588 v 4666 h 1837 q 922,0 1351,-310 430,-309 430,-978 0,-462 -224,-759 -223,-297 -673,-438 247,-56 442,-255 196,-198 396,-601 L 4800,0 H 3519 l -569,1159 q -172,350 -349,478 -176,129 -470,129 z"
               transform="scale(0.015625)" />
            <path
               id="DejaVuSans-Bold-61"
               d="m 2106,1575 q -350,0 -527,-119 -176,-118 -176,-350 0,-212 142,-333 143,-120 396,-120 315,0 531,226 216,227 216,568 v 128 z m 1710,422 V 0 H 2688 V 519 Q 2463,200 2181,54 1900,-91 1497,-91 953,-91 614,226 275,544 275,1050 q 0,616 423,903 424,288 1330,288 h 660 v 87 q 0,266 -210,389 -209,124 -653,124 -359,0 -669,-72 -309,-72 -575,-216 v 853 q 360,88 722,133 363,45 725,45 947,0 1367,-373 421,-373 421,-1214 z"
               transform="scale(0.015625)" />
          </defs>
          <use
             xlink:href="#DejaVuSans-Bold-4b"
             id="use68" />
          <use
             xlink:href="#DejaVuSans-Bold-50"
             x="77.490234"
             id="use69" />
          <use
             xlink:href="#DejaVuSans-Bold-49"
             x="150.78125"
             id="use70" />
          <use
             xlink:href="#DejaVuSans-Bold-20"
             x="187.98828"
             id="use71" />
          <use
             xlink:href="#DejaVuSans-Bold-41"
             x="222.80273"
             id="use72" />
          <use
             xlink:href="#DejaVuSans-Bold-63"
             x="300.19531"
             id="use73" />
          <use
             xlink:href="#DejaVuSans-Bold-68"
             x="359.47266"
             id="use74" />
          <use
             xlink:href="#DejaVuSans-Bold-69"
             x="430.66406"
             id="use75" />
          <use
             xlink:href="#DejaVuSans-Bold-65"
             x="464.94141"
             id="use76" />
          <use
             xlink:href="#DejaVuSans-Bold-76"
             x="532.76367"
             id="use77" />
          <use
             xlink:href="#DejaVuSans-Bold-65"
             x="597.94922"
             id="use78" />
          <use
             xlink:href="#DejaVuSans-Bold-6d"
             x="665.77148"
             id="use79" />
          <use
             xlink:href="#DejaVuSans-Bold-65"
             x="769.9707"
             id="use80" />
          <use
             xlink:href="#DejaVuSans-Bold-6e"
             x="837.79297"
             id="use81" />
          <use
             xlink:href="#DejaVuSans-Bold-74"
             x="908.98438"
             id="use82" />
          <use
             xlink:href="#DejaVuSans-Bold-20"
             x="956.78711"
             id="use83" />
          <use
             xlink:href="#DejaVuSans-Bold-52"
             x="991.60156"
             id="use84" />
          <use
             xlink:href="#DejaVuSans-Bold-61"
             x="1068.6035"
             id="use85" />
          <use
             xlink:href="#DejaVuSans-Bold-74"
             x="1136.084"
             id="use86" />
          <use
             xlink:href="#DejaVuSans-Bold-65"
             x="1183.8867"
             id="use87" />
        </g>
      </g>
      <g
         id="legend_1">
        <g
           id="patch_5">
          <path
             d="m 503.76,84.72 h 4.8 q 2.4,0 2.4,-2.4 v -4.8 q 0,-2.4 -2.4,-2.4 h -4.8 q -2.4,0 -2.4,2.4 v 4.8 q 0,2.4 2.4,2.4 z"
             style="opacity:0.8;fill:#ffffff;stroke:#cccccc;stroke-linejoin:miter"
             id="path87" />
        </g>
      </g>
    </g>
  </g>
  <defs
     id="defs88">
    <clipPath
       id="pda6db5c713">
      <path
         d="M 516.96 290.88  C 516.96 261.758744 511.223747 232.920655 500.079525 206.016122  C 488.935303 179.111589 472.599838 154.663838 452.008 134.072  C 431.416162 113.480162 406.968411 97.144697 380.063878 86.000475  C 353.159345 74.856253 324.321256 69.12 295.2 69.12  C 266.078744 69.12 237.240655 74.856253 210.336122 86.000475  C 183.431589 97.144697 158.983838 113.480162 138.392 134.072  C 117.800162 154.663838 101.464697 179.111589 90.320475 206.016122  C 79.176253 232.920655 73.44 261.758744 73.44 290.88  C 73.44 320.001256 79.176253 348.839345 90.320475 375.743878  C 101.464697 402.648411 117.800162 427.096162 138.392 447.688  C 158.983838 468.279838 183.431589 484.615303 210.336122 495.759525  C 237.240655 506.903747 266.078744 512.64 295.2 512.64  C 324.321256 512.64 353.159345 506.903747 380.063878 495.759525  C 406.968411 484.615303 431.416162 468.279838 452.008 447.688  C 472.599838 427.096162 488.935303 402.648411 500.079525 375.743878  C 511.223747 348.839345 516.96 320.001256 516.96 290.88  M 295.2 290.88  C 295.2 290.88 295.2 290.88 295.2 290.88  C 295.2 290.88 295.2 290.88 295.2 290.88  C 295.2 290.88 295.2 290.88 295.2 290.88  C 295.2 290.88 295.2 290.88 295.2 290.88  C 295.2 290.88 295.2 290.88 295.2 290.88  C 295.2 290.88 295.2 290.88 295.2 290.88  C 295.2 290.88 295.2 290.88 295.2 290.88  C 295.2 290.88 295.2 290.88 295.2 290.88  C 295.2 290.88 295.2 290.88 295.2 290.88  C 295.2 290.88 295.2 290.88 295.2 290.88  C 295.2 290.88 295.2 290.88 295.2 290.88  C 295.2 290.88 295.2 290.88 295.2 290.88  C 295.2 290.88 295.2 290.88 295.2 290.88  C 295.2 290.88 295.2 290.88 295.2 290.88  C 295.2 290.88 295.2 290.88 295.2 290.88  C 295.2 290.88 295.2 290.88 295.2 290.88  z "
         id="path88" />
    </clipPath>
  </defs>
</svg>
